<?xml version="1.0" encoding="UTF-8" standalone="no"?>
<svg
   xmlns="http://www.w3.org/2000/svg"
   viewBox="0 0 800.01373 100.74215"
   height="100.74215"
   width="800.01373"
   version="1.1"
   id="svg20573"><defs
     id="defs20577" /><g
     transform="matrix(1.25,0,0,-1.25,0,100.74215)"
     id="g20581"><path
       style="fill:#ffffff;fill-opacity:1;fill-rule:nonzero;stroke:none"
       d="M 16.191,0.406 C 7.262,0.406 0,7.887 0,17.117 L 0,64.266 C 0,73.52 7.262,81 16.191,81 l 607.649,0 c 8.957,0 16.172,-7.48 16.172,-16.734 l 0,-47.149 c 0,-9.23 -7.215,-16.711 -16.172,-16.711 l -607.649,0 z" />
     <path
       style="fill:#c1121c;fill-opacity:1;fill-rule:nonzero;stroke:none"
       d="m 40.168,0.602 -23.973,0 C 7.359,0.602 0.207,8.008 0.207,17.129 l 0,47.137 c 0,9.144 7.152,16.535 15.988,16.535 l 23.973,0 0,-80.199 z" />
     <path
       style="fill:#c1121c;fill-opacity:1;fill-rule:nonzero;stroke:none"
       d="m 120.125,80.805 79.945,0 0,-80.195 -79.945,0 0,80.195 z" />
     <path
       style="fill:#c1121c;fill-opacity:1;fill-rule:nonzero;stroke:none"
       d="m 280.039,80.805 79.945,0 0,-80.195 -79.945,0 0,80.195 z" />
     <path
       style="fill:#c1121c;fill-opacity:1;fill-rule:nonzero;stroke:none"
       d="m 439.953,80.805 79.945,0 0,-80.195 -79.945,0 0,80.195 z" />
     <path
       style="fill:#c1121c;fill-opacity:1;fill-rule:nonzero;stroke:none"
       d="m 599.859,0.602 0,80.199 23.985,0 c 8.836,0 15.988,-7.391 15.988,-16.535 l 0,-47.137 c 0,-9.121 -7.152,-16.524 -15.988,-16.527 l -23.985,0 z" />
     <path
       style="fill:#000000;fill-opacity:1;fill-rule:nonzero;stroke:none"
       d="M 16.191,0.406 C 7.262,0.406 0,7.887 0,17.117 L 0,64.266 C 0,73.52 7.262,81 16.191,81 l 607.649,0 c 8.957,0 16.172,-7.48 16.172,-16.734 l 0,-47.149 c 0,-9.23 -7.215,-16.711 -16.172,-16.711 l -607.649,0 z m 0,0.391 607.649,0 c 8.742,0 15.793,7.308 15.793,16.32 l 0,47.149 c 0,9.035 -7.051,16.32 -15.793,16.32 l -607.649,0 c -8.718,0 -15.793,-7.285 -15.793,-16.32 l 0,-47.149 c 0,-9.012 7.075,-16.32 15.793,-16.32 z" /></g></svg>
